# xmcd CD database file
#
# Track frame offsets:
#	150
#	18451
#	37912
#	57032
#	80642
#	98182
#	122115
#	140097
#	158482
#	175457
#	195050
#	213429
#
# Disc length: 3110 seconds
#
# Revision: 0
# Processed by: cddbd v1.5.2PL0 Copyright (c) Steve Scherf et al.
# Submitted via: CDex 1.75
#
DISCID=990c240c
DTITLE=Paul Hardcastle - Hardcastle 8
DYEAR=2018
DGENRE=Jazz
TTITLE0=Amber Sky 
TTITLE1=Turn Down The Heat
TTITLE2=Happy Go Lucky
TTITLE3=Stay In The Moment
TTITLE4=Jam On This
TTITLE5=Astral Vision
TTITLE6=Horse With No Name
TTITLE7=Hardcastle Boogie
TTITLE8=Dancing Galaxies
TTITLE9=Breaking The Ice
TTITLE10=Echoes Rising
TTITLE11=Cut Loose
EXTD=YEAR: 2018
EXTT0=
EXTT1=
EXTT2=
EXTT3=
EXTT4=
EXTT5=
EXTT6=
EXTT7=
EXTT8=
EXTT9=
EXTT10=
EXTT11=
PLAYORDER=
